<?xml version="1.0" encoding="utf-8" ?>
<svg width="40" height="40" viewBox="0 0 40 40" xmlns="http://www.w3.org/2000/svg">
  <rect x="6" y="20" width="28" height="16" fill="#D2691E" stroke="#8B4513" stroke-width="1"/>
  <polygon points="5,20 20,8 35,20" fill="#654321" stroke="#4A4A4A" stroke-width="1"/>
  <polygon points="6,20 6,36 22,36 22,20" fill="#8B4513" stroke="#654321" stroke-width="1"/>
  <polygon points="22,20 22,36 38,36 38,20" fill="#8B4513" stroke="#654321" stroke-width="1"/>
  <circle cx="14" cy="28" r="2.5" fill="#FFE4B5" stroke="#D2B48C" stroke-width="0.5"/>
  <rect x="12" y="30" width="4" height="6" fill="#4169E1" stroke="#000080" stroke-width="0.3"/>
  <circle cx="30" cy="28" r="2.5" fill="#FFE4B5" stroke="#D2B48C" stroke-width="0.5"/>
  <rect x="28" y="30" width="4" height="6" fill="#4169E1" stroke="#000080" stroke-width="0.3"/>
  <circle cx="14" cy="32" r="2.5" fill="#FFE4B5" stroke="#D2B48C" stroke-width="0.5"/>
  <rect x="12" y="34" width="4" height="6" fill="#4169E1" stroke="#000080" stroke-width="0.3"/>
  <circle cx="30" cy="32" r="2.5" fill="#FFE4B5" stroke="#D2B48C" stroke-width="0.5"/>
  <rect x="28" y="34" width="4" height="6" fill="#4169E1" stroke="#000080" stroke-width="0.3"/>
  <rect x="17" y="32" width="6" height="4" fill="#654321" stroke="#4A4A4A" stroke-width="0.5"/>
</svg> 