<?xml version="1.0" encoding="utf-8" ?>
<svg width="40" height="40" viewBox="0 0 40 40" xmlns="http://www.w3.org/2000/svg">
  <!-- Основание нагревателя -->
  <rect x="8" y="30" width="24" height="6" fill="#2F2F2F" stroke="#1A1A1A" stroke-width="1" rx="2"/>
  
  <!-- Стойка/корпус нагревателя -->
  <rect x="12" y="15" width="16" height="15" fill="#4A4A4A" stroke="#2F2F2F" stroke-width="1" rx="2"/>
  
  <!-- Нагревательные элементы (спирали) - черные -->
  <circle cx="20" cy="20" r="4" fill="none" stroke="#2F2F2F" stroke-width="2"/>
  <circle cx="20" cy="20" r="2.5" fill="none" stroke="#4A4A4A" stroke-width="1.5"/>
  <circle cx="20" cy="20" r="1" fill="#2F2F2F"/>
  
  <!-- Дополнительные нагревательные элементы - черные -->
  <circle cx="16" cy="24" r="2" fill="none" stroke="#2F2F2F" stroke-width="1.5"/>
  <circle cx="24" cy="24" r="2" fill="none" stroke="#2F2F2F" stroke-width="1.5"/>
  <circle cx="16" cy="16" r="1.5" fill="none" stroke="#4A4A4A" stroke-width="1"/>
  <circle cx="24" cy="16" r="1.5" fill="none" stroke="#4A4A4A" stroke-width="1"/>
  
  <!-- Волны тепла - черные -->
  <path d="M10,12 Q12,10 14,12 Q16,14 18,12" stroke="#4A4A4A" stroke-width="1.5" fill="none" opacity="0.8"/>
  <path d="M22,12 Q24,10 26,12 Q28,14 30,12" stroke="#4A4A4A" stroke-width="1.5" fill="none" opacity="0.8"/>
  <path d="M12,8 Q14,6 16,8 Q18,10 20,8 Q22,6 24,8 Q26,10 28,8" stroke="#2F2F2F" stroke-width="1.5" fill="none" opacity="0.6"/>
  <path d="M14,4 Q16,2 18,4 Q20,6 22,4 Q24,2 26,4" stroke="#4A4A4A" stroke-width="1" fill="none" opacity="0.4"/>
  
  <!-- Регулятор температуры -->
  <rect x="30" y="18" width="3" height="8" fill="#1A1A1A" stroke="#000000" stroke-width="0.5" rx="1"/>
  <circle cx="31.5" cy="22" r="1" fill="#4A4A4A" stroke="#2F2F2F" stroke-width="0.5"/>
  
  <!-- Индикаторы питания - черные -->
  <circle cx="18" cy="32" r="1" fill="#4A4A4A"/>
  <circle cx="22" cy="32" r="1" fill="#2F2F2F"/>
  
  <!-- Вентиляционные отверстия -->
  <line x1="14" y1="17" x2="26" y2="17" stroke="#1A1A1A" stroke-width="0.5"/>
  <line x1="14" y1="19" x2="26" y2="19" stroke="#1A1A1A" stroke-width="0.5"/>
  <line x1="14" y1="27" x2="26" y2="27" stroke="#1A1A1A" stroke-width="0.5"/>
  <line x1="14" y1="29" x2="26" y2="29" stroke="#1A1A1A" stroke-width="0.5"/>
</svg>
