<svg width="180" height="60" xmlns="http://www.w3.org/2000/svg">
 <!-- Created with SVG Editor - http://github.com/mzalive/SVG Editor/ -->

 <g>
  <title>Layer 1</title>
  <g id="svg_16">
   <path id="svg_13" fill="#E47F36" d="m8.703251,8.864825l4.763559,0l0,22.098001l-4.763559,0l0,-22.098001zm17.562831,12.312107c-0.730643,-1.034797 -1.872063,-2.87634 -3.424388,-5.5245l0,15.310394l-4.33738,0l0,-22.098001l3.774268,0l6.726828,9.603168c0.852331,1.207393 2.039334,3.074261 3.56127,5.600604l0,-15.203772l4.352692,0l0,22.098001l-3.804774,0l-6.848516,-9.785894zm20.439054,-3.180753l8.172661,0l0,3.591659l-8.172661,0l0,9.374988l-4.763468,0l0,-22.098001l14.214559,0l0,3.576464l-9.451092,0l0,5.55489zm17.167133,12.966647l-4.702689,0l0,-22.098001l7.579029,0c2.759718,0 4.875155,0.588437 6.346312,1.76544c1.481416,1.166744 2.22206,2.87634 2.22206,5.128789c0,1.389989 -0.355192,2.592316 -1.065316,3.606854c-0.710254,1.014667 -1.719726,1.795829 -3.028677,2.343747l4.839701,9.253171l-5.083205,0l-4.048279,-8.416165l-3.058936,0l0,8.416165zm2.67855,-11.840423c1.369729,0 2.379201,-0.273894 3.028547,-0.821811c0.659475,-0.558047 0.989213,-1.405183 0.989213,-2.541538c0,-1.166874 -0.329738,-2.019074 -0.989213,-2.556862c-0.649345,-0.547918 -1.658818,-0.821811 -3.028547,-0.821811l-2.67855,0l0,6.742023l2.67855,0zm16.877914,6.163716l-1.795829,5.676707l-4.687494,0l7.168123,-22.098001l6.300728,0l7.350719,22.098001l-4.611261,0l-1.872063,-5.676707l-7.852923,0zm3.774255,-12.342626l-2.708939,8.827071l5.707096,0l-2.785042,-8.827071l-0.213115,0zm17.973749,18.019333l-4.702689,0l0,-22.098001l7.579029,0c2.759718,0 4.875155,0.588437 6.346312,1.76544c1.481416,1.166744 2.22206,2.87634 2.22206,5.128789c0,1.389989 -0.355192,2.592316 -1.065316,3.606854c-0.710254,1.014667 -1.719856,1.795829 -3.028677,2.343747l4.839701,9.253171l-5.083205,0l-4.048279,-8.416165l-3.058936,0l0,8.416165zm2.67855,-11.840423c1.369729,0 2.379201,-0.273894 3.028547,-0.821811c0.659475,-0.558047 0.989213,-1.405183 0.989213,-2.541538c0,-1.166874 -0.329738,-2.019074 -0.989213,-2.556862c-0.649345,-0.547918 -1.658818,-0.821811 -3.028547,-0.821811l-2.67855,0l0,6.742023l2.67855,0zm17.471416,-1.278431l8.705254,0l0,3.454777l-8.705254,0l0,6.148521l9.953295,0l0,3.515556l-14.716893,0l0,-22.098001l14.397285,0l0,3.515556l-9.633688,0l0,5.463592zm20.941258,-8.979147c3.805164,0 6.666179,0.918174 8.583047,2.754653c1.928556,1.836349 2.892184,4.565677 2.892184,8.187855c0,3.652568 -0.974018,6.42748 -2.922054,8.324737c-1.937647,1.887127 -4.788273,2.830756 -8.553177,2.830756l-7.411628,0l0,-22.098001l7.411628,0zm0.319478,18.551926c2.059723,0 3.616854,-0.634151 4.672689,-1.902322c1.054537,-1.268301 1.583104,-3.150364 1.583104,-5.646318c0,-2.455305 -0.523372,-4.306978 -1.56752,-5.55489c-1.045446,-1.247912 -2.607771,-1.871933 -4.688273,-1.871933l-3.028547,0l0,14.975462l3.028547,0z"/>
   <path id="svg_14" fill="black" d="m13.216396,37.886406c1.343067,-0.007403 2.854042,0.28727 4.532885,0.884149l-0.705111,2.686212c-1.559468,-0.552203 -2.827938,-0.828305 -3.805397,-0.828305c-0.790929,0 -1.413962,0.156752 -1.869115,0.470126c-0.455152,0.313374 -0.682735,0.738695 -0.682735,1.275964c0,0.581943 0.20892,1.044537 0.626774,1.387781c0.425308,0.343244 1.197575,0.660384 2.316812,0.951421c1.649,0.425321 2.820457,1.014797 3.514387,1.768297c0.693929,0.746228 1.040888,1.77596 1.040888,3.089196c0,1.589208 -0.537229,2.809198 -1.611701,3.65984c-1.066991,0.84311 -2.592888,1.264795 -4.577651,1.264795c-1.619169,0 -3.353973,-0.365711 -5.204438,-1.096874l0.828227,-2.607901c1.022238,0.365711 1.857933,0.623112 2.507083,0.772331c0.649164,0.141817 1.26473,0.212596 1.846738,0.212596c0.843149,0 1.492312,-0.179089 1.947465,-0.537138c0.46262,-0.365711 0.693929,-0.869344 0.693929,-1.511027c0,-0.410386 -0.097012,-0.75363 -0.291011,-1.029732c-0.193998,-0.275972 -0.522307,-0.522204 -0.984927,-0.738695c-0.462607,-0.223764 -1.130419,-0.443892 -2.003425,-0.660254c-1.455001,-0.350776 -2.518265,-0.895447 -3.189805,-1.634142c-0.67154,-0.738695 -1.007303,-1.712454 -1.007303,-2.921145c0,-1.544533 0.529762,-2.738419 1.589299,-3.581529c1.067004,-0.850642 2.563044,-1.275964 4.488132,-1.275964zm10.531914,12.277952l-1.320639,4.174771l-3.447232,0l5.271502,-16.251296l4.633728,0l5.4058,16.251296l-3.391271,0l-1.376612,-4.174771l-5.775278,0zm2.775692,-9.076939l-1.992192,6.491505l4.197109,0l-2.048165,-6.491505l-0.156752,0zm22.765269,7.700327c0,1.880244 -0.582073,3.31296 -1.74609,4.297887c-1.164016,0.984927 -2.8466,1.477391 -5.047751,1.477391c-2.230891,0 -3.921007,-0.488827 -5.070088,-1.466222c-1.141549,-0.977524 -1.712454,-2.413876 -1.712454,-4.309056l0,-10.699913l3.514387,0l0,10.744717c0,1.969854 1.089472,2.958417 3.268155,2.96595c2.186346,0 3.279454,-0.988693 3.279454,-2.96595l0,-10.744717l3.514387,0l0,10.699913zm9.06577,-1.645311c-0.537268,-0.761033 -1.376742,-2.115307 -2.518291,-4.062824l0,11.259518l-3.189844,0l0,-16.251296l2.775692,0l4.946973,7.06241c0.626878,0.887915 1.499858,2.260891 2.61907,4.118798l0,-11.181207l3.201013,0l0,16.251296l-2.798029,0l-5.036582,-7.196694zm14.594816,3.021923l-1.320768,4.174771l-3.447245,0l5.271645,-16.251296l4.633599,0l5.40593,16.251296l-3.391271,0l-1.376742,-4.174771l-5.775148,0zm2.775692,-9.076939l-1.992321,6.491505l4.197109,0l-2.048165,-6.491505l-0.156622,0zm20.325289,-2.999586c1.984659,0 3.503088,0.440256 4.555158,1.320768c1.052199,0.87298 1.578169,2.145177 1.578169,3.816592c0,1.619078 -0.533502,2.880106 -1.600506,3.782956c-1.067004,0.895447 -2.555564,1.343106 -4.465678,1.343106l-2.18258,0l0,5.987873l-3.458413,0l0,-16.251296l5.573851,0zm-0.145583,7.700327c0.947655,0 1.652714,-0.208829 2.115437,-0.626748c0.469996,-0.425321 0.705059,-1.07077 0.705059,-1.936218c0,-0.87311 -0.231297,-1.514793 -0.69389,-1.925179c-0.455191,-0.417789 -1.164016,-0.626748 -2.126606,-0.626748l-1.969854,0l0,5.114893l1.969854,0zm10.711081,4.376198l-1.320639,4.174771l-3.447245,0l5.271515,-16.251296l4.633599,0l5.40593,16.251296l-3.391271,0l-1.376612,-4.174771l-5.775278,0zm2.775692,-9.076939l-1.992192,6.491505l4.197109,0l-2.048165,-6.491505l-0.156752,0zm13.218204,13.25171l-3.458543,0l0,-16.251296l5.573851,0c2.029594,0 3.585295,0.432854 4.667235,1.298301c1.089342,0.858175 1.634013,2.115437 1.634013,3.771917c0,1.022199 -0.261167,1.906348 -0.7835,2.652576c-0.522204,0.746098 -1.264665,1.320639 -2.227255,1.723622l3.559192,6.804879l-3.738281,0l-2.977119,-6.1893l-2.249592,0l0,6.1893zm1.969854,-8.707591c1.007265,0 1.749726,-0.201557 2.227255,-0.604411c0.484931,-0.410386 0.727527,-1.033498 0.727527,-1.869076c0,-0.858175 -0.242595,-1.484923 -0.727527,-1.880374c-0.477529,-0.402984 -1.21999,-0.604411 -2.227255,-0.604411l-1.969854,0l0,4.958271l1.969854,0zm19.777501,-4.87996l-4.398665,0l0,13.587551l-3.503867,0l0,-13.587551l-4.566456,0l0,-2.663744l12.468989,0l0,2.663744zm6.860983,-2.865171c1.342846,-0.007403 2.853223,0.28727 4.532431,0.884149l-0.705189,2.686212c-1.559728,-0.552203 -2.82725,-0.828305 -3.805164,-0.828305c-0.790903,0 -1.414274,0.156752 -1.868816,0.470126c-0.45584,0.313374 -0.683111,0.738695 -0.683111,1.275964c0,0.581943 0.209089,1.044537 0.627268,1.387781c0.424672,0.343244 1.197393,0.660384 2.316864,0.951421c1.648038,0.425321 2.819457,1.014797 3.514257,1.768297c0.693501,0.746228 1.040251,1.77596 1.040251,3.089196c0,1.589208 -0.536359,2.809198 -1.611675,3.65984c-1.066225,0.84311 -2.592187,1.264795 -4.577885,1.264795c-1.618169,0 -3.353219,-0.365711 -5.203854,-1.096874l0.828565,-2.607901c1.02207,0.365711 1.857128,0.623112 2.506473,0.772331c0.649345,0.141817 1.264925,0.212596 1.846738,0.212596c0.84285,0 1.492196,-0.179089 1.948036,-0.537138c0.462334,-0.365711 0.693501,-0.869344 0.693501,-1.511027c0,-0.410386 -0.097402,-0.75363 -0.290907,-1.029732c-0.193505,-0.275972 -0.522074,-0.522204 -0.984408,-0.738695c-0.463633,-0.223764 -1.13116,-0.443892 -2.00388,-0.660254c-1.454534,-0.350776 -2.518161,-0.895447 -3.189584,-1.634142c-0.671423,-0.738695 -1.007784,-1.712454 -1.007784,-2.921145c0,-1.544533 0.529866,-2.738419 1.589597,-3.581529c1.067524,-0.850642 2.562317,-1.275964 4.488275,-1.275964z"/>
  </g>
 </g>
</svg>