<svg width="179" height="91" viewBox="0 0 179 91" fill="none" xmlns="http://www.w3.org/2000/svg">
<path d="M55.2308 6.12913e-06C80.211 5.03721e-06 100.462 20.2505 100.462 45.2308C100.462 70.211 80.211 90.4615 55.2308 90.4615C30.2505 90.4615 10 70.211 10 45.2308C10 20.2505 30.2505 7.22105e-06 55.2308 6.12913e-06Z" fill="#D46F35"/>
<rect x="55.2" y="45.2308" width="45.2308" height="45.2308" transform="rotate(-90 55.2 45.2308)" fill="#D46F35"/>
<path d="M50.4727 46.4492C50.4727 51.1497 49.1315 54.7499 46.4492 57.2499C43.78 59.7499 39.9193 60.9999 34.8672 60.9999H26.7813V32.4453H35.7461C40.4076 32.4453 44.0273 33.6757 46.6055 36.1367C49.1836 38.5976 50.4727 42.0351 50.4727 46.4492ZM44.1836 46.6054C44.1836 40.4726 41.4753 37.4062 36.0586 37.4062H32.8359V55.9999H35.4336C41.2669 55.9999 44.1836 52.8684 44.1836 46.6054ZM56.3906 60.9999V32.4453H62.4453V60.9999H56.3906ZM78.5195 44.2031L84.4766 32.4453H91L81.5273 49.8867V60.9999H75.5117V50.082L66.0391 32.4453H72.6016L78.5195 44.2031Z" fill="#2C2C2C"/>
<path d="M108.376 43.9999V33.5775H110.08V43.9999H108.376ZM121.522 43.9999H119.433L114.307 35.6947H114.25L114.286 36.1581C114.352 37.0421 114.386 37.8501 114.386 38.582V43.9999H112.839V33.5775H114.906L120.017 41.8399H120.06C120.051 41.7306 120.032 41.3337 120.003 40.6493C119.975 39.9602 119.96 39.4232 119.96 39.0382V33.5775H121.522V43.9999ZM125.963 43.9999H124.273V33.5775H130.155V35.0175H125.963V38.2754H129.891V39.7226H125.963V43.9999ZM133.748 38.4251H134.931C135.725 38.4251 136.3 38.2778 136.656 37.9831C137.013 37.6885 137.191 37.2512 137.191 36.6714C137.191 36.0821 136.998 35.6591 136.613 35.4025C136.229 35.1458 135.649 35.0175 134.874 35.0175H133.748V38.4251ZM133.748 39.8366V43.9999H132.044V33.5775H134.988C136.333 33.5775 137.329 33.8294 137.975 34.3331C138.621 34.8369 138.945 35.5973 138.945 36.6144C138.945 37.9118 138.27 38.8362 136.92 39.3875L139.864 43.9999H137.925L135.43 39.8366H133.748ZM147.849 43.9999L146.808 41.1056H142.823L141.803 43.9999H140.007L143.906 33.5347H145.76L149.659 43.9999H147.849ZM146.359 39.637L145.382 36.7997C145.311 36.6096 145.211 36.3102 145.083 35.9015C144.959 35.4928 144.874 35.1933 144.826 35.0032C144.698 35.5878 144.51 36.227 144.263 36.9209L143.322 39.637H146.359ZM152.739 38.4251H153.922C154.716 38.4251 155.291 38.2778 155.648 37.9831C156.004 37.6885 156.182 37.2512 156.182 36.6714C156.182 36.0821 155.99 35.6591 155.605 35.4025C155.22 35.1458 154.64 35.0175 153.865 35.0175H152.739V38.4251ZM152.739 39.8366V43.9999H151.035V33.5775H153.979C155.324 33.5775 156.32 33.8294 156.967 34.3331C157.613 34.8369 157.936 35.5973 157.936 36.6144C157.936 37.9118 157.261 38.8362 155.911 39.3875L158.856 43.9999H156.917L154.421 39.8366H152.739ZM166.27 43.9999H160.374V33.5775H166.27V35.0175H162.078V37.8548H166.006V39.2806H162.078V42.5528H166.27V43.9999ZM177.006 38.6889C177.006 40.4093 176.528 41.7258 175.573 42.6383C174.618 43.546 173.242 43.9999 171.445 43.9999H168.53V33.5775H171.752C173.411 33.5775 174.701 34.0242 175.623 34.9177C176.545 35.8112 177.006 37.0683 177.006 38.6889ZM175.209 38.7459C175.209 36.2508 174.043 35.0032 171.709 35.0032H170.233V42.567H171.445C173.955 42.567 175.209 41.2933 175.209 38.7459ZM117.623 57.9291C117.623 59.2621 117.141 60.308 116.177 61.0668C115.213 61.8256 113.884 62.205 112.188 62.205C110.493 62.205 109.105 61.9418 108.025 61.4155V59.0981C108.709 59.4194 109.434 59.6723 110.199 59.8569C110.972 60.0414 111.689 60.1337 112.353 60.1337C113.323 60.1337 114.038 59.9491 114.496 59.58C114.96 59.2109 115.193 58.7153 115.193 58.0932C115.193 57.5326 114.981 57.0575 114.557 56.6679C114.133 56.2782 113.258 55.8168 111.932 55.2836C110.565 54.7299 109.601 54.0976 109.041 53.3866C108.48 52.6757 108.2 51.8212 108.2 50.8232C108.2 49.5722 108.644 48.5878 109.533 47.87C110.421 47.1523 111.614 46.7934 113.111 46.7934C114.547 46.7934 115.976 47.1078 117.397 47.7367L116.618 49.7363C115.285 49.1757 114.096 48.8954 113.05 48.8954C112.257 48.8954 111.655 49.0697 111.245 49.4184C110.835 49.7602 110.63 50.2148 110.63 50.7822C110.63 51.1718 110.712 51.5068 110.876 51.787C111.04 52.0605 111.31 52.3202 111.686 52.5663C112.062 52.8124 112.739 53.1371 113.716 53.5405C114.817 53.9985 115.624 54.4257 116.136 54.8222C116.649 55.2187 117.025 55.6664 117.264 56.1655C117.503 56.6645 117.623 57.2524 117.623 57.9291ZM129.825 61.9999L128.328 57.8368H122.596L121.13 61.9999H118.546L124.155 46.9472H126.821L132.43 61.9999H129.825ZM127.682 55.7245L126.277 51.6435C126.175 51.37 126.031 50.9394 125.847 50.3515C125.669 49.7636 125.546 49.3329 125.478 49.0595C125.293 49.9003 125.023 50.8197 124.667 51.8178L123.314 55.7245H127.682ZM146.16 47.0087V56.7089C146.16 57.8163 145.92 58.787 145.442 59.621C144.97 60.4482 144.283 61.0873 143.381 61.5385C142.485 61.9828 141.412 62.205 140.161 62.205C138.302 62.205 136.856 61.7128 135.824 60.7284C134.792 59.7441 134.275 58.3905 134.275 56.6679V47.0087H136.736V56.4936C136.736 57.7309 137.023 58.6435 137.598 59.2314C138.172 59.8193 139.054 60.1132 140.243 60.1132C142.554 60.1132 143.709 58.8998 143.709 56.4731V47.0087H146.16ZM162.484 61.9999H159.479L152.107 50.0541H152.025L152.076 50.7206C152.172 51.9921 152.22 53.1542 152.22 54.207V61.9999H149.995V47.0087H152.968L160.32 58.893H160.382C160.368 58.7358 160.341 58.165 160.3 57.1806C160.259 56.1894 160.238 55.4169 160.238 54.8632V47.0087H162.484V61.9999ZM175.742 61.9999L174.245 57.8368H168.513L167.047 61.9999H164.463L170.072 46.9472H172.738L178.347 61.9999H175.742ZM173.599 55.7245L172.194 51.6435C172.092 51.37 171.948 50.9394 171.764 50.3515C171.586 49.7636 171.463 49.3329 171.395 49.0595C171.21 49.9003 170.94 50.8197 170.584 51.8178L169.231 55.7245H173.599Z" fill="#2C2C2C"/>
</svg>
