<svg width="180" height="59.99999999999999" xmlns="http://www.w3.org/2000/svg">
 <!-- Created with SVG Editor - http://github.com/mzalive/SVG Editor/ -->

 <g>
  <title>background</title>
  <rect x="-1" y="-1" width="182" height="62" id="canvas_background" fill="none"/>
 </g>
 <g>
  <title>Layer 1</title>
  <g id="svg_16">
   <path id="svg_13" fill="#e47f36" d="m8.70325,8.86482l4.76356,0l0,22.09801l-4.76356,0l0,-22.09801zm17.56283,12.31211c-0.73064,-1.0348 -1.87206,-2.87634 -3.42439,-5.5245l0,15.3104l-4.33738,0l0,-22.09801l3.77427,0l6.72683,9.60317c0.85233,1.2074 2.03933,3.07426 3.56127,5.60061l0,-15.20378l4.35269,0l0,22.09801l-3.80477,0l-6.84852,-9.7859zm20.43906,-3.18075l8.17266,0l0,3.59166l-8.17266,0l0,9.37499l-4.76347,0l0,-22.09801l14.21456,0l0,3.57647l-9.4511,0l0,5.55489l0.00001,0zm17.16713,12.96665l-4.70269,0l0,-22.09801l7.57903,0c2.75972,0 4.87515,0.58844 6.34631,1.76544c1.48142,1.16675 2.22206,2.87635 2.22206,5.12879c0,1.38999 -0.35519,2.59232 -1.06531,3.60686c-0.71026,1.01466 -1.71973,1.79583 -3.02868,2.34374l4.8397,9.25318l-5.08321,0l-4.04827,-8.41617l-3.05894,0l0,8.41617zm2.67855,-11.84043c1.36973,0 2.3792,-0.27389 3.02855,-0.82181c0.65947,-0.55805 0.98921,-1.40518 0.98921,-2.54154c0,-1.16687 -0.32974,-2.01907 -0.98921,-2.55686c-0.64935,-0.54792 -1.65882,-0.82181 -3.02855,-0.82181l-2.67855,0l0,6.74202l2.67855,0zm16.87791,6.16372l-1.79583,5.67671l-4.68749,0l7.16812,-22.09801l6.30073,0l7.35072,22.09801l-4.61126,0l-1.87206,-5.67671l-7.85293,0zm3.77426,-12.34263l-2.70894,8.82707l5.70709,0l-2.78504,-8.82707l-0.21311,0zm17.97375,18.01934l-4.70269,0l0,-22.09801l7.57903,0c2.75971,0 4.87515,0.58844 6.34631,1.76544c1.48141,1.16675 2.22206,2.87635 2.22206,5.12879c0,1.38999 -0.35519,2.59232 -1.06532,3.60686c-0.71025,1.01466 -1.71985,1.79583 -3.02867,2.34374l4.8397,9.25318l-5.08321,0l-4.04828,-8.41617l-3.05893,0l0,8.41617zm2.67855,-11.84043c1.36973,0 2.3792,-0.27389 3.02854,-0.82181c0.65948,-0.55805 0.98922,-1.40518 0.98922,-2.54154c0,-1.16687 -0.32974,-2.01907 -0.98922,-2.55686c-0.64934,-0.54792 -1.65881,-0.82181 -3.02854,-0.82181l-2.67855,0l0,6.74202l2.67855,0zm17.47141,-1.27843l8.70526,0l0,3.45478l-8.70526,0l0,6.14852l9.9533,0l0,3.51556l-14.71689,0l0,-22.09801l14.39728,0l0,3.51556l-9.63369,0l0,5.46359zm20.94126,-8.97915c3.80516,0 6.66618,0.91818 8.58305,2.75466c1.92855,1.83635 2.89218,4.56567 2.89218,8.18785c0,3.65257 -0.97402,6.42748 -2.92205,8.32474c-1.93765,1.88713 -4.78828,2.83076 -8.55318,2.83076l-7.41163,0l0,-22.09801l7.41163,0zm0.31948,18.55193c2.05972,0 3.61685,-0.63415 4.67269,-1.90232c1.05453,-1.2683 1.5831,-3.15036 1.5831,-5.64632c0,-2.4553 -0.52337,-4.30698 -1.56752,-5.55489c-1.04544,-1.24791 -2.60777,-1.87193 -4.68827,-1.87193l-3.02855,0l0,14.97546l3.02855,0z"/>
   <path id="svg_14" fill="#cecece" d="m13.2164,37.88641c1.34306,-0.00741 2.85404,0.28727 4.53288,0.88415l-0.70511,2.68621c-1.55947,-0.55221 -2.82794,-0.82831 -3.8054,-0.82831c-0.79093,0 -1.41396,0.15675 -1.86911,0.47013c-0.45515,0.31337 -0.68274,0.73869 -0.68274,1.27596c0,0.58195 0.20892,1.04454 0.62678,1.38778c0.42531,0.34325 1.19757,0.66039 2.31681,0.95142c1.649,0.42532 2.82046,1.0148 3.51439,1.7683c0.69393,0.74623 1.04088,1.77596 1.04088,3.0892c0,1.5892 -0.53722,2.8092 -1.6117,3.65984c-1.06699,0.84311 -2.59288,1.26479 -4.57765,1.26479c-1.61917,0 -3.35397,-0.36571 -5.20444,-1.09687l0.82823,-2.6079c1.02224,0.36571 1.85793,0.62311 2.50708,0.77233c0.64917,0.14182 1.26473,0.21259 1.84674,0.21259c0.84315,0 1.49231,-0.17908 1.94747,-0.53713c0.46262,-0.36571 0.69393,-0.86935 0.69393,-1.51103c0,-0.41039 -0.09702,-0.75363 -0.29101,-1.02973c-0.194,-0.27598 -0.52231,-0.52221 -0.98493,-0.7387c-0.46261,-0.22376 -1.13042,-0.44389 -2.00343,-0.66025c-1.455,-0.35078 -2.51826,-0.89545 -3.1898,-1.63414c-0.67154,-0.7387 -1.0073,-1.71246 -1.0073,-2.92115c0,-1.54453 0.52976,-2.73842 1.58929,-3.58153c1.06701,-0.85064 2.56305,-1.27596 4.48814,-1.27596zm10.53191,12.27795l-1.32064,4.17477l-3.44723,0l5.2715,-16.2513l4.63373,0l5.4058,16.2513l-3.39127,0l-1.37661,-4.17477l-5.77528,0zm2.77569,-9.07694l-1.99219,6.4915l4.19711,0l-2.04817,-6.4915l-0.15675,0zm22.76527,7.70033c0,1.88024 -0.58207,3.31296 -1.74609,4.29788c-1.16401,0.98493 -2.8466,1.47739 -5.04775,1.47739c-2.23089,0 -3.92101,-0.48882 -5.07009,-1.46622c-1.14155,-0.97752 -1.71245,-2.41387 -1.71245,-4.30905l0,-10.69992l3.51438,0l0,10.74472c0,1.96985 1.08948,2.95842 3.26816,2.96595c2.18635,0 3.27945,-0.98869 3.27945,-2.96595l0,-10.74472l3.51439,0l0,10.69992zm9.06577,-1.64532c-0.53727,-0.76103 -1.37674,-2.1153 -2.51829,-4.06282l0,11.25952l-3.18984,0l0,-16.2513l2.77569,0l4.94697,7.06241c0.62688,0.88792 1.49986,2.26089 2.61907,4.1188l0,-11.18121l3.20101,0l0,16.2513l-2.79802,0l-5.03659,-7.19669l0,-0.00001zm14.59482,3.02193l-1.32077,4.17477l-3.44725,0l5.27165,-16.2513l4.6336,0l5.40593,16.2513l-3.39127,0l-1.37674,-4.17477l-5.77515,0zm2.77569,-9.07694l-1.99232,6.4915l4.19711,0l-2.04817,-6.4915l-0.15662,0zm20.32529,-2.99959c1.98466,0 3.50309,0.44026 4.55516,1.32077c1.0522,0.87298 1.57817,2.14518 1.57817,3.81659c0,1.61908 -0.53351,2.88011 -1.60051,3.78296c-1.067,0.89545 -2.55556,1.3431 -4.46568,1.3431l-2.18258,0l0,5.98788l-3.45841,0l0,-16.2513l5.57385,0zm-0.14559,7.70033c0.94766,0 1.65272,-0.20883 2.11544,-0.62675c0.47,-0.42532 0.70506,-1.07077 0.70506,-1.93622c0,-0.87311 -0.2313,-1.51479 -0.69389,-1.92517c-0.45519,-0.41779 -1.16401,-0.62675 -2.1266,-0.62675l-1.96986,0l0,5.11489l1.96986,0l-0.00001,0zm10.71109,4.3762l-1.32064,4.17477l-3.44725,0l5.27152,-16.2513l4.6336,0l5.40593,16.2513l-3.39128,0l-1.37661,-4.17477l-5.77528,0l0.00001,0zm2.77569,-9.07694l-1.99219,6.4915l4.1971,0l-2.04816,-6.4915l-0.15675,0zm13.2182,13.25171l-3.45854,0l0,-16.2513l5.57385,0c2.02959,0 3.58529,0.43286 4.66724,1.2983c1.08934,0.85818 1.63401,2.11544 1.63401,3.77192c0,1.0222 -0.26117,1.90635 -0.7835,2.65258c-0.52221,0.7461 -1.26467,1.32064 -2.22726,1.72362l3.55919,6.80488l-3.73828,0l-2.97712,-6.1893l-2.24959,0l0,6.1893zm1.96986,-8.70759c1.00726,0 1.74972,-0.20156 2.22725,-0.60441c0.48493,-0.41039 0.72753,-1.0335 0.72753,-1.86908c0,-0.85817 -0.2426,-1.48492 -0.72753,-1.88037c-0.47753,-0.40299 -1.21999,-0.60441 -2.22725,-0.60441l-1.96986,0l0,4.95827l1.96986,0zm19.7775,-4.87996l-4.39867,0l0,13.58755l-3.50387,0l0,-13.58755l-4.56645,0l0,-2.66375l12.46899,0l0,2.66375zm6.86098,-2.86517c1.34285,-0.00741 2.85322,0.28727 4.53243,0.88415l-0.70519,2.68621c-1.55973,-0.55221 -2.82725,-0.82831 -3.80516,-0.82831c-0.7909,0 -1.41428,0.15675 -1.86882,0.47013c-0.45584,0.31337 -0.68311,0.73869 -0.68311,1.27596c0,0.58195 0.20909,1.04454 0.62727,1.38778c0.42467,0.34325 1.19739,0.66039 2.31686,0.95142c1.64804,0.42533 2.81946,1.0148 3.51426,1.7683c0.6935,0.74623 1.04025,1.77596 1.04025,3.0892c0,1.58921 -0.53636,2.8092 -1.61167,3.65984c-1.06623,0.84311 -2.59219,1.26479 -4.57789,1.26479c-1.61817,0 -3.35322,-0.36571 -5.20385,-1.09687l0.82856,-2.6079c1.02207,0.36571 1.85713,0.62311 2.50648,0.77233c0.64934,0.14182 1.26492,0.21259 1.84673,0.21259c0.84285,0 1.4922,-0.17908 1.94804,-0.53713c0.46233,-0.36571 0.6935,-0.86935 0.6935,-1.51103c0,-0.41039 -0.0974,-0.75363 -0.29091,-1.02973c-0.1935,-0.27597 -0.52207,-0.52221 -0.98441,-0.7387c-0.46363,-0.22376 -1.13116,-0.44389 -2.00388,-0.66025c-1.45453,-0.35078 -2.51816,-0.89545 -3.18958,-1.63414c-0.67142,-0.7387 -1.00778,-1.71246 -1.00778,-2.92115c0,-1.54453 0.52986,-2.73842 1.58959,-3.58153c1.06753,-0.85064 2.56232,-1.27596 4.48828,-1.27596z"/>
  </g>
 </g>
</svg>