<svg width="50" height="50" viewBox="0 0 50 50" fill="none" xmlns="http://www.w3.org/2000/svg">
<path d="M50 25C50 38.8071 38.8071 50 25 50C11.1929 50 0 38.8071 0 25C0 11.1929 11.1929 0 25 0C38.8071 0 50 11.1929 50 25Z" fill="#D46F35"/>
<rect x="24.8934" y="25" width="25" height="25" fill="#D46F35"/>
<path d="M21.6968 26.6333C21.6968 29.3361 20.9256 31.4062 19.3833 32.8438C17.8485 34.2812 15.6286 35 12.7236 35H8.07422V18.5811H13.229C15.9093 18.5811 17.9907 19.2886 19.4731 20.7036C20.9556 22.1187 21.6968 24.0952 21.6968 26.6333ZM18.0806 26.7231C18.0806 23.1968 16.5233 21.4336 13.4087 21.4336H11.5557V32.125H13.0493C16.4035 32.125 18.0806 30.3244 18.0806 26.7231ZM25.0996 35V18.5811H28.5811V35H25.0996ZM37.8237 25.3418L41.249 18.5811H45L39.5532 28.6099V35H36.0942V28.7222L30.6475 18.5811H34.4209L37.8237 25.3418Z" fill="#FDDEC7"/>
</svg>
